Coordinates
version=1
nRows=29
nColumns=24
inDegrees=yes

Units are S.I. units (second, meters, Newtons, ...)
Angles are in degrees.

endheader
time	pelvis_tilt	pelvis_list	pelvis_rotation	pelvis_tx	pelvis_ty	pelvis_tz	hip_flexion_r	hip_adduction_r	hip_rotation_r	knee_angle_r	ankle_angle_r	subtalar_angle_r	mtp_angle_r	hip_flexion_l	hip_adduction_l	hip_rotation_l	knee_angle_l	ankle_angle_l	subtalar_angle_l	mtp_angle_l	lumbar_extension	lumbar_bending	lumbar_rotation
      1.04150000	     -1.57895805	     -2.08164286	     -2.64991209	      0.43177546	      1.01167292	      0.35406902	     14.49725438	      5.24394074	     -3.97452621	    -18.87915118	      0.49073105	    -12.37059075	     -2.30849732	     17.46153362	     -9.16878026	    -13.41346647	    -74.80415823	      0.40559950	    -20.76417639	     -9.85492133	    -11.16142893	      7.64163446	     11.17547037
      1.04566667	     -1.30344135	     -2.00498236	     -2.83512614	      0.43664087	      1.01300509	      0.35477140	     13.71574476	      5.23031415	     -3.73336790	    -18.52345441	      0.58861352	    -12.35156492	     -2.31068278	     17.75786131	     -9.11815956	    -13.54679395	    -74.54825809	      0.55821397	    -20.59408219	    -10.06451848	    -11.45292492	      7.46557246	     11.35831781
      1.04983333	     -1.11921265	     -1.90486206	     -2.96975277	      0.44145770	      1.01413750	      0.35532597	     13.05337071	      5.16870546	     -3.56962268	    -18.19963935	      0.65942137	    -12.33569056	     -2.31294343	     18.17511581	     -9.01498755	    -13.61564803	    -74.26449838	      0.70202790	    -20.39137896	    -10.22012187	    -11.62843204	      7.26737066	     11.46337189
      1.05400000	     -1.07168997	     -1.83082252	     -3.06554503	      0.44626871	      1.01499547	      0.35575525	     12.54287049	      5.12362598	     -3.45729104	    -17.88503154	      0.73927544	    -12.31668018	     -2.31265009	     18.76231112	     -8.92089982	    -13.62151361	    -73.96739067	      0.75417928	    -20.29322494	    -10.24032021	    -11.62819577	      7.14033855	     11.49262507
      1.05816667	     -0.76890243	     -1.73665316	     -3.22407097	      0.45107094	      1.01629333	      0.35636554	     11.73681693	      5.06407939	     -3.24957671	    -17.52398406	      0.80149427	    -12.28957857	     -2.31575742	     19.00625659	     -8.82898402	    -13.72414567	    -73.56396149	      0.93617112	    -19.96874894	    -10.35787025	    -11.96091570	      6.93862147	     11.63695805
      1.06233333	     -0.67803163	     -1.63603425	     -3.31480647	      0.45583262	      1.01717709	      0.35679742	     11.18559698	      4.98221093	     -3.13412339	    -17.20847887	      0.83119932	    -12.28180714	     -2.31755278	     19.52164131	     -8.70441307	    -13.74063776	    -73.15179092	      0.95551425	    -19.75888474	    -10.39573455	    -12.02345193	      6.76351296	     11.69357098
      1.06650000	     -0.39521868	     -1.56229493	     -3.46041786	      0.46063789	      1.01837290	      0.35738204	     10.39675472	      4.93436979	     -2.94373926	    -16.84078430	      0.91841111	    -12.24971889	     -2.32160398	     19.77060871	     -8.63388254	    -13.83975277	    -72.66344588	      1.10157322	    -19.49561535	    -10.47840469	    -12.32014263	      6.59228046	     11.80465586
      1.07066667	     -0.23674488	     -1.47123715	     -3.56759315	      0.46540778	      1.01931929	      0.35786898	      9.76283576	      4.85880480	     -2.80780091	    -16.50690696	      0.97083495	    -12.23076480	     -2.32711777	     20.17077575	     -8.52666723	    -13.88626389	    -72.14517198	      1.16491770	    -19.25202205	    -10.53191035	    -12.46430515	      6.40974573	     11.88043319
      1.07483333	     -0.16248985	     -1.40549418	     -3.64453377	      0.47012737	      1.02005422	      0.35827803	      9.23231266	      4.80437703	     -2.70996214	    -16.19477943	      1.02325423	    -12.19263572	     -2.32945161	     20.67962339	     -8.43969336	    -13.88786521	    -71.61374751	      1.16166725	    -18.99273227	    -10.54552422	    -12.51659990	      6.27148375	     11.91627011
      1.07900000	      0.11858602	     -1.33278964	     -3.77612453	      0.47489890	      1.02116461	      0.35884765	      8.44943050	      4.74277018	     -2.53830344	    -15.82830884	      1.10051301	    -12.14406432	     -2.34068934	     20.89555724	     -8.36462235	    -13.98115959	    -70.97852127	      1.23656487	    -18.72315820	    -10.57720192	    -12.81156631	      6.08896488	     12.00436045
      1.08316667	      0.22812380	     -1.25776934	     -3.85990636	      0.47962551	      1.02190383	      0.35926329	      7.88292434	      4.66967448	     -2.44633199	    -15.52027939	      1.17623017	    -12.08908745	     -2.34810588	     21.32544283	     -8.26479037	    -14.00125041	    -70.34498595	      1.32848758	    -18.43315469	    -10.57938637	    -12.90020678	      5.93684216	     12.04406449
      1.08733333	      0.27330889	     -1.20113194	     -3.92197019	      0.48430639	      1.02248454	      0.35964873	      7.39472804	      4.61734603	     -2.37275745	    -15.22590608	      1.22994497	    -12.03814618	     -2.35162984	     21.83361862	     -8.18177086	    -13.99033960	    -69.68520770	      1.31025207	    -18.16642791	    -10.57464327	    -12.92233744	      5.80962508	     12.06972960
      1.09150000	      0.35000328	     -1.14209825	     -3.99114562	      0.48901632	      1.02309739	      0.36004467	      6.86903290	      4.55680466	     -2.30308042	    -14.92825916	      1.30584627	    -11.96047002	     -2.35609388	     22.27907332	     -8.09813541	    -13.99724647	    -68.97087850	      1.35829207	    -17.85670728	    -10.56246235	    -12.97729860	      5.67527200	     12.09093078
      1.09566667	      0.63212362	     -1.07741117	     -4.10082264	      0.49372476	      1.02406218	      0.36055621	      6.10128869	      4.48193969	     -2.18591093	    -14.58720463	      1.41544501	    -11.83796805	     -2.37605121	     22.44601024	     -8.01879125	    -14.08211298	    -68.15845909	      1.41427175	    -17.57617696	    -10.51079723	    -13.28197555	      5.49451105	     12.14041477
      1.09983333	      0.68339669	     -1.02345777	     -4.16456542	      0.49841898	      1.02456107	      0.36092981	      5.61293472	      4.42240928	     -2.13393604	    -14.30785009	      1.49240620	    -11.76258457	     -2.38949633	     22.89132505	     -7.93577246	    -14.08855597	    -67.35927563	      1.47513811	    -17.29437557	    -10.46799085	    -13.30393698	      5.36904853	     12.16529125
      1.10400000	      0.69232051	     -0.99384079	     -4.21566907	      0.50305707	      1.02493375	      0.36129593	      5.17725080	      4.39168842	     -2.08937270	    -14.03659755	      1.55794222	    -11.68709882	     -2.39550999	     23.38612327	     -7.88011128	    -14.07363817	    -66.53595482	      1.46360650	    -17.01861824	    -10.44477941	    -13.29446597	      5.26966880	     12.18071182
      1.10816667	      0.79169679	     -0.94227091	     -4.28551960	      0.50773512	      1.02544069	      0.36169277	      4.64130246	      4.32647934	     -2.04787366	    -13.76587920	      1.68447654	    -11.53414530	     -2.41026889	     23.73819716	     -7.80190406	    -14.10311579	    -65.64314009	      1.57328060	    -16.70581123	    -10.38571545	    -13.38372311	      5.12046418	     12.18103544
      1.11233333	      0.78230106	     -0.94648857	     -4.33280722	      0.51238770	      1.02569610	      0.36208191	      4.22418387	      4.33348034	     -2.01958000	    -13.49950771	      1.77221367	    -11.46581213	     -2.41470586	     24.22328879	     -7.79038855	    -14.09645539	    -64.74829471	      1.52652338	    -16.49275959	    -10.36615217	    -13.34437787	      5.05592881	     12.19841147
      1.11650000	      0.91510978	     -0.88064117	     -4.40940867	      0.51702846	      1.02620577	      0.36243072	      3.66927993	      4.23922960	     -1.98894440	    -13.25652478	      1.91044202	    -11.25422055	     -2.43774129	     24.49549855	     -7.68473299	    -14.14059153	    -63.74490668	      1.62767794	    -16.17053421	    -10.27120240	    -13.48274524	      4.90968434	     12.19481243
      1.12066667	      0.89487850	     -0.88399308	     -4.45083256	      0.52162998	      1.02637463	      0.36277974	      3.28067937	      4.24071866	     -1.97004557	    -13.01587380	      1.97190358	    -11.18511482	     -2.44582465	     24.96079765	     -7.66040429	    -14.12499659	    -62.75959688	      1.57983837	    -15.93661855	    -10.23786709	    -13.44518835	      4.85315622	     12.21276457
      1.12483333	      1.00460437	     -0.84527639	     -4.52957080	      0.52627127	      1.02675998	      0.36316514	      2.75463759	      4.17714433	     -1.95320928	    -12.78431278	      2.14017973	    -10.95915695	     -2.47841336	     25.22673542	     -7.59481823	    -14.18670840	    -61.68315763	      1.61039080	    -15.68881512	    -10.09695230	    -13.55593444	      4.72301700	     12.21228224
      1.12900000	      0.95119620	     -0.85764245	     -4.56780636	      0.53089096	      1.02679924	      0.36349098	      2.40815914	      4.18708414	     -1.94249330	    -12.55916068	      2.20398239	    -10.89581501	     -2.48688353	     25.69075043	     -7.57679572	    -14.17402028	    -60.62029297	      1.61279424	    -15.46361441	    -10.05783155	    -13.47843941	      4.67369172	     12.22485219
      1.13316667	      0.96389816	     -0.84292958	     -4.64038308	      0.53551900	      1.02692102	      0.36386878	      2.00017591	      4.15743018	     -1.92398937	    -12.35554707	      2.36054583	    -10.70639806	     -2.50789008	     26.04042858	     -7.53983144	    -14.22059738	    -59.49325384	      1.67536574	    -15.22350368	     -9.95394205	    -13.47936546	      4.57300836	     12.21574470
      1.13733333	      0.91129909	     -0.87724790	     -4.68465874	      0.54011820	      1.02687969	      0.36420532	      1.66260296	      4.18919905	     -1.91759500	    -12.15159239	      2.44561290	    -10.62043798	     -2.51577292	     26.46690873	     -7.54925473	    -14.22334076	    -58.35069055	      1.62761554	    -15.00950625	     -9.91240384	    -13.40942386	      4.55144590	     12.22950858
      1.14150000	      0.94263354	     -0.85927575	     -4.77108687	      0.54475945	      1.02696792	      0.36460060	      1.24455424	      4.15005499	     -1.90847951	    -11.96829874	      2.62146337	    -10.40936379	     -2.53743455	     26.74539430	     -7.51328619	    -14.30770019	    -57.12637141	      1.67972386	    -14.80577847	     -9.78967640	    -13.42705361	      4.44295985	     12.22666521
      1.14566667	      0.88866638	     -0.91368724	     -4.81420925	      0.54934488	      1.02683984	      0.36492322	      0.91393342	      4.20221010	     -1.89665967	    -11.77645958	      2.70872772	    -10.32663510	     -2.54533543	     27.13718296	     -7.53980313	    -14.31358997	    -55.90836860	      1.61958552	    -14.60596754	     -9.74162463	    -13.36657707	      4.43864803	     12.24494949
      1.14983333	      0.88949534	     -0.91174532	     -4.90893247	      0.55400638	      1.02680850	      0.36533021	      0.53422716	      4.18211240	     -1.88162415	    -11.60765277	      2.87900259	    -10.14591109	     -2.56239734	     27.40622557	     -7.52589138	    -14.41700067	    -54.60557923	      1.64784365	    -14.42879795	     -9.62624790	    -13.34579243	      4.34851950	     12.25043803
      1.15400000	      0.92370338	     -0.92876559	     -4.99989682	      0.55859530	      1.02679534	      0.36572713	      0.11914501	      4.18156953	     -1.82808926	    -11.43268502	      3.03041628	     -9.97705747	     -2.58824163	     27.62560620	     -7.52192324	    -14.50428888	    -53.25665239	      1.58853260	    -14.26966201	     -9.44190364	    -13.39500397	      4.26897381	     12.29142851
      1.15816667	      0.85133281	     -1.01843838	     -5.03996272	      0.56320119	      1.02650619	      0.36603731	     -0.18731144	      4.27151924	     -1.83092584	    -11.25691110	      3.12540377	     -9.92387790	     -2.59319859	     27.98082006	     -7.58449455	    -14.52350908	    -51.93851239	      1.54579197	    -14.07708822	     -9.39523987	    -13.31266435	      4.31053842	     12.30461331
